<svg width="53" height="33" viewBox="0 0 53 33" fill="none" xmlns="http://www.w3.org/2000/svg">
<rect x="0.402832" width="51.7917" height="33" rx="10" fill="#F4F7FE"/>
<g clip-path="url(#clip0_515_645)">
<path d="M11.6476 13.2811H11.8476C12.6176 13.2811 13.2476 13.9111 13.2476 14.6811V21.6811C13.2476 22.4511 12.6176 23.0811 11.8476 23.0811H11.6476C10.8776 23.0811 10.2476 22.4511 10.2476 21.6811V14.6811C10.2476 13.9111 10.8776 13.2811 11.6476 13.2811V13.2811ZM17.2476 9.08105C18.0176 9.08105 18.6476 9.71105 18.6476 10.4811V21.6811C18.6476 22.4511 18.0176 23.0811 17.2476 23.0811C16.4776 23.0811 15.8476 22.4511 15.8476 21.6811V10.4811C15.8476 9.71105 16.4776 9.08105 17.2476 9.08105ZM22.8476 17.0811C23.6176 17.0811 24.2476 17.7111 24.2476 18.4811V21.6811C24.2476 22.4511 23.6176 23.0811 22.8476 23.0811C22.0776 23.0811 21.4476 22.4511 21.4476 21.6811V18.4811C21.4476 17.7111 22.0776 17.0811 22.8476 17.0811V17.0811Z" fill="#7848F4"/>
</g>
<defs>
<clipPath id="clip0_515_645">
<rect width="24" height="24" fill="white" transform="translate(5.24756 4.08105)"/>
</clipPath>
</defs>
</svg>
