<svg width="143" height="143" viewBox="0 0 143 143" fill="none" xmlns="http://www.w3.org/2000/svg">
<circle cx="71.4999" cy="71.5001" r="71.4999" transform="rotate(-90 71.4999 71.5001)" fill="#EFF4FB"/>
<path d="M71.4999 0.00017779C86.0281 0.000179811 100.212 4.42589 112.162 12.688C124.112 20.9501 133.261 32.6565 138.392 46.2485C143.523 59.8404 144.392 74.6729 140.883 88.7708C137.373 102.869 129.653 115.563 118.749 125.164C107.845 134.764 94.2749 140.815 79.846 142.511C65.4172 144.207 50.8141 141.467 37.9813 134.657C25.1484 127.846 14.6948 117.287 8.01242 104.387C1.33001 91.4873 -1.26409 76.8576 0.57554 62.4464L71.4999 71.5001L71.4999 0.00017779Z" fill="#6AD2FF"/>
<path d="M71.4999 0.00017779C82.5151 0.000179322 93.3813 2.5452 103.251 7.43667C113.12 12.3282 121.726 19.4338 128.397 28.1993C135.068 36.9647 139.623 47.1529 141.708 57.969C143.792 68.7851 143.35 79.9366 140.414 90.5534C137.479 101.17 132.13 110.965 124.786 119.175C117.441 127.384 108.299 133.785 98.073 137.879C87.8469 141.972 76.8132 143.648 65.8327 142.775C54.8522 141.902 44.2219 138.504 34.7712 132.845L71.4999 71.5001L71.4999 0.00017779Z" fill="#7848F4"/>
</svg>
